name C:\Users\u0101727\Documents\MyRepositories\upper-imu-dc\Results\main_tracking\Case_44\kinematics_filtered.mot
datacolumns 10
datarows 52
range 5.00000000 5.51000000
endheader 
time	clav_prot	clav_elev	scapula_abduction	scapula_elevation	scapula_upward_rot	scapula_winging	plane_elv	shoulder_elv	axial_rot	
          5.00000000	        -23.65335291	          2.22128922	         -0.14224433	         -4.20115070	         36.38399277	         -2.11247307	         68.90659214	         46.36389810	        -23.63287550	
          5.01000000	        -23.46258671	          2.01965504	         -0.16511149	         -4.25177510	         35.84536781	         -1.94743421	         68.70669293	         45.94848676	        -23.42706570	
          5.02000000	        -23.28022577	          1.81936910	         -0.19358360	         -4.30229528	         35.31718672	         -1.78414336	         68.49352108	         45.53658749	        -23.21774689	
          5.03000000	        -23.11272779	          1.62096033	         -0.23913162	         -4.35280668	         34.79952598	         -1.62277092	         68.26714806	         45.12798949	        -23.00493690	
          5.04000000	        -22.96765212	          1.42500164	         -0.31528274	         -4.40340450	         34.29229692	         -1.46340530	         68.02762738	         44.72244693	        -22.78858351	
          5.05000000	        -22.85308071	          1.23206453	         -0.43660913	         -4.45417583	         33.79521575	         -1.30603514	         67.77499552	         44.31967338	        -22.56856186	
          5.06000000	        -22.77699841	          1.04267358	         -0.61764334	         -4.50519090	         33.30778043	         -1.15053547	         67.50927441	         43.91933937	        -22.34467266	
          5.07000000	        -22.74742504	          0.85731626	         -0.87312327	         -4.55650038	         32.82926401	         -0.99665767	         67.23047466	         43.52107557	        -22.11664193	
          5.08000000	        -22.77288855	          0.67646027	         -1.21882359	         -4.60815213	         32.35873605	         -0.84401885	         66.93859646	         43.12448205	        -21.88412299	
          5.09000000	        -22.86009818	          0.50033097	         -1.66738265	         -4.66022646	         31.89511781	         -0.69209509	         66.63362592	         42.72914375	        -21.64670100	
          5.10000000	        -23.00696189	          0.32835247	         -2.21584395	         -4.71285323	         31.43726469	         -0.54024971	         66.31552815	         42.33465328	        -21.40390042	
          5.11000000	        -23.19666330	          0.15876657	         -2.83509043	         -4.76616738	         30.98406678	         -0.38783411	         65.98424053	         41.94064343	        -21.15519479	
          5.12000000	        -23.40217286	         -0.01084858	         -3.47781246	         -4.82021868	         30.53456093	         -0.23434226	         65.63966842	         41.54682276	        -20.90001838	
          5.13000000	        -23.59880745	         -0.18247008	         -4.10075234	         -4.87491623	         30.08803441	         -0.07952350	         65.28168223	         41.15299195	        -20.63777999	
          5.14000000	        -23.77187713	         -0.35704215	         -4.67822416	         -4.93005577	         29.64408720	          0.07661600	         64.91011406	         40.75902794	        -20.36787941	
          5.15000000	        -23.91578822	         -0.53464228	         -5.20049417	         -4.98538869	         29.20263687	          0.23388536	         64.52475459	         40.36485119	        -20.08972582	
          5.16000000	        -24.03071360	         -0.71483129	         -5.66787990	         -5.04067598	         28.76387913	          0.39198523	         64.12535125	         39.97039758	        -19.80275608	
          5.17000000	        -24.12001789	         -0.89691157	         -6.08621316	         -5.09571583	         28.32822668	          0.55056416	         63.71160704	         39.57560151	        -19.50645151	
          5.18000000	        -24.18841647	         -1.08010286	         -6.46361492	         -5.15035319	         27.89624345	          0.70925713	         63.28317958	         39.18038829	        -19.20035242	
          5.19000000	        -24.24077021	         -1.26365116	         -6.80839757	         -5.20447857	         27.46858453	          0.86770912	         62.83968080	         38.78467333	        -18.88406943	
          5.20000000	        -24.28138455	         -1.44688722	         -7.12785624	         -5.25802150	         27.04594721	          1.02558758	         62.38067751	         38.38836608	        -18.55729122	
          5.21000000	        -24.31367945	         -1.62925003	         -7.42770972	         -5.31094202	         26.62903477	          1.18258705	         61.90569309	         37.99137604	        -18.21978829	
          5.22000000	        -24.34011079	         -1.81028752	         -7.71197925	         -5.36322233	         26.21853204	          1.33842867	         61.41421030	         37.59361873	        -17.87141253	
          5.23000000	        -24.36224590	         -1.98964432	         -7.98313382	         -5.41485946	         25.81509047	          1.49285706	         60.90567529	         37.19502013	        -17.51209257	
          5.24000000	        -24.38091983	         -2.16704323	         -8.24237351	         -5.46585918	         25.41931996	          1.64563598	         60.37950255	         36.79551907	        -17.14182514	
          5.25000000	        -24.39642101	         -2.34226513	         -8.48996157	         -5.51623101	         25.03178477	          1.79654398	         59.83508077	         36.39506777	        -16.76066294	
          5.26000000	        -24.40867340	         -2.51512982	         -8.72554882	         -5.56598406	         24.65300131	          1.94537066	         59.27177917	         35.99363113	        -16.36869965	
          5.27000000	        -24.41739660	         -2.68547961	         -8.94845802	         -5.61512335	         24.28343626	          2.09191392	         58.68895378	         35.59118543	        -15.96605303	
          5.28000000	        -24.42223488	         -2.85316607	         -9.15791341	         -5.66364672	         23.92350434	          2.23597827	         58.08595319	         35.18771670	        -15.55284696	
          5.29000000	        -24.42285312	         -3.01804041	         -9.35321143	         -5.71154216	         23.57356581	          2.37737420	         57.46212330	         34.78321924	        -15.12919363	
          5.30000000	        -24.41900098	         -3.17994718	         -9.53383482	         -5.75878583	         23.23392405	          2.51591828	         56.81681096	         34.37769429	        -14.69517638	
          5.31000000	        -24.41054923	         -3.33872105	         -9.69951672	         -5.80534095	         22.90482428	          2.65143394	         56.14936624	         33.97114900	        -14.25083396	
          5.32000000	        -24.39750303	         -3.49418624	         -9.85026291	         -5.85115762	         22.58645372	          2.78375249	         55.45914353	         33.56359550	        -13.79614648	
          5.33000000	        -24.37999783	         -3.64615800	         -9.98634189	         -5.89617369	         22.27894372	          2.91271430	         54.74550165	         33.15505047	        -13.33102287	
          5.34000000	        -24.35828305	         -3.79444573	        -10.10825260	         -5.94031645	         21.98237362	          3.03817012	         54.00780317	         32.74553496	        -12.85528989	
          5.35000000	        -24.33269904	         -3.93885703	        -10.21667928	         -5.98350505	         21.69677589	          3.15998215	         53.24541342	         32.33507486	        -12.36868218	
          5.36000000	        -24.30365168	         -4.07920235	        -10.31244204	         -6.02565345	         21.42214163	          3.27802533	         52.45769946	         31.92370209	        -11.87083337	
          5.37000000	        -24.27158822	         -4.21529971	        -10.39645006	         -6.06667340	         21.15842589	          3.39218841	         51.64402954	         31.51145635	        -11.36126793	
          5.38000000	        -24.23697691	         -4.34697912	        -10.46966212	         -6.10647742	         20.90555187	          3.50237520	         50.80377321	         31.09838748	        -10.83939393	
          5.39000000	        -24.20029161	         -4.47408645	        -10.53305703	         -6.14498129	         20.66341381	          3.60850574	         49.93630264	         30.68455807	        -10.30449682	
          5.40000000	        -24.16200129	         -4.59648655	        -10.58761379	         -6.18210612	         20.43187836	          3.71051745	         49.04099521	         30.27004602	         -9.75573466	
          5.41000000	        -24.12256377	         -4.71406543	        -10.63430007	         -6.21777968	         20.21078469	          3.80836617	         48.11723756	         29.85494667	         -9.19213519	
          5.42000000	        -24.08242200	         -4.82673171	        -10.67406607	         -6.25193714	         19.99994394	          3.90202696	         47.16443124	         29.43937427	         -8.61259500	
          5.43000000	        -24.04200175	         -4.93441715	        -10.70784111	         -6.28452125	         19.79913820	          3.99149462	         46.18199979	         29.02346268	         -8.01588131	
          5.44000000	        -24.00170934	         -5.03707652	        -10.73653041	         -6.31548198	         19.60811972	          4.07678376	         45.16939715	         28.60736520	         -7.40063654	
          5.45000000	        -23.96192887	         -5.13468686	        -10.76101102	         -6.34477584	         19.42661061	          4.15792852	         44.12611712	         28.19125381	         -6.76538590	
          5.46000000	        -23.92301894	         -5.22724631	        -10.78212639	         -6.37236498	         19.25430310	          4.23498186	         43.05170364	         27.77531788	         -6.10854808	
          5.47000000	        -23.88530906	         -5.31477264	        -10.80068027	         -6.39821611	         19.09086042	          4.30801450	         41.94576151	         27.35976278	         -5.42844923	
          5.48000000	        -23.84909625	         -5.39730158	        -10.81743048	         -6.42229959	         18.93591824	          4.37711365	         40.80796730	         26.94480847	         -4.72334002	
          5.49000000	        -23.81464229	         -5.47488513	        -10.83308357	         -6.44458840	         18.78908655	          4.44238148	         39.63808032	         26.53068844	         -3.99141608	
          5.50000000	        -23.78217177	         -5.54758995	        -10.84829069	         -6.46505753	         18.64995193	          4.50393364	         38.43595331	         26.11764909	         -3.23084149	
          5.51000000	        -23.75187114	         -5.61549585	        -10.86364484	         -6.48368343	         18.51807999	          4.56189766	         37.20154297	         25.70594949	         -2.43977545	
